<mxfile host="app.diagrams.net" modified="2023-11-05T10:03:45.979Z" agent="Mozilla/5.0 (Windows NT 10.0; Win64; x64) AppleWebKit/537.36 (KHTML, like Gecko) Chrome/119.0.0.0 Safari/537.36" etag="U3mW1VGe669b101nMbAG" version="22.0.8" type="device">
  <diagram name="Page-1" id="_KrqYm6iSiH7gBCBTovp">
    <mxGraphModel dx="1434" dy="800" grid="1" gridSize="10" guides="1" tooltips="1" connect="1" arrows="1" fold="1" page="1" pageScale="1" pageWidth="850" pageHeight="1100" math="0" shadow="0">
      <root>
        <mxCell id="0" />
        <mxCell id="1" parent="0" />
        <mxCell id="z1p9RPbKcic8axvv2RAE-35" style="edgeStyle=orthogonalEdgeStyle;rounded=0;orthogonalLoop=1;jettySize=auto;html=1;shape=flexArrow;strokeColor=#10739e;fillColor=#b1ddf0;" edge="1" parent="1" source="z1p9RPbKcic8axvv2RAE-1">
          <mxGeometry relative="1" as="geometry">
            <mxPoint x="300" y="385" as="targetPoint" />
          </mxGeometry>
        </mxCell>
        <mxCell id="z1p9RPbKcic8axvv2RAE-1" value="" style="rounded=1;whiteSpace=wrap;html=1;" vertex="1" parent="1">
          <mxGeometry x="30" y="110" width="230" height="550" as="geometry" />
        </mxCell>
        <mxCell id="z1p9RPbKcic8axvv2RAE-2" value="&lt;b&gt;&lt;font style=&quot;font-size: 14px;&quot;&gt;INPUT&lt;/font&gt;&lt;/b&gt;" style="text;html=1;align=center;verticalAlign=middle;resizable=0;points=[];autosize=1;strokeColor=none;fillColor=none;" vertex="1" parent="1">
          <mxGeometry x="110" y="130" width="70" height="30" as="geometry" />
        </mxCell>
        <mxCell id="z1p9RPbKcic8axvv2RAE-39" style="edgeStyle=orthogonalEdgeStyle;rounded=0;orthogonalLoop=1;jettySize=auto;html=1;entryX=0;entryY=0.5;entryDx=0;entryDy=0;shape=flexArrow;fillColor=#b1ddf0;strokeColor=#10739e;" edge="1" parent="1" source="z1p9RPbKcic8axvv2RAE-3" target="z1p9RPbKcic8axvv2RAE-6">
          <mxGeometry relative="1" as="geometry">
            <Array as="points">
              <mxPoint x="560" y="385" />
              <mxPoint x="560" y="185" />
            </Array>
          </mxGeometry>
        </mxCell>
        <mxCell id="z1p9RPbKcic8axvv2RAE-3" value="" style="rounded=1;whiteSpace=wrap;html=1;" vertex="1" parent="1">
          <mxGeometry x="310" y="110" width="230" height="550" as="geometry" />
        </mxCell>
        <mxCell id="z1p9RPbKcic8axvv2RAE-4" value="&lt;b&gt;&lt;font style=&quot;font-size: 14px;&quot;&gt;PROCESS&lt;/font&gt;&lt;/b&gt;" style="text;html=1;align=center;verticalAlign=middle;resizable=0;points=[];autosize=1;strokeColor=none;fillColor=none;" vertex="1" parent="1">
          <mxGeometry x="385" y="130" width="90" height="30" as="geometry" />
        </mxCell>
        <mxCell id="z1p9RPbKcic8axvv2RAE-40" style="edgeStyle=orthogonalEdgeStyle;rounded=0;orthogonalLoop=1;jettySize=auto;html=1;shape=flexArrow;fillColor=#b1ddf0;strokeColor=#10739e;" edge="1" parent="1" source="z1p9RPbKcic8axvv2RAE-6">
          <mxGeometry relative="1" as="geometry">
            <mxPoint x="705" y="350" as="targetPoint" />
          </mxGeometry>
        </mxCell>
        <mxCell id="z1p9RPbKcic8axvv2RAE-6" value="" style="rounded=1;whiteSpace=wrap;html=1;" vertex="1" parent="1">
          <mxGeometry x="590" y="110" width="230" height="150" as="geometry" />
        </mxCell>
        <mxCell id="z1p9RPbKcic8axvv2RAE-7" value="Changes are made to the system when there are bugs and errors found to ensure that the system behaves properly and efficiently." style="rounded=1;whiteSpace=wrap;html=1;" vertex="1" parent="1">
          <mxGeometry x="590" y="360" width="230" height="150" as="geometry" />
        </mxCell>
        <mxCell id="z1p9RPbKcic8axvv2RAE-8" value="&lt;font style=&quot;font-size: 14px;&quot;&gt;&lt;b&gt;OUTPUT&lt;/b&gt;&lt;/font&gt;" style="text;html=1;align=center;verticalAlign=middle;resizable=0;points=[];autosize=1;strokeColor=none;fillColor=none;" vertex="1" parent="1">
          <mxGeometry x="670" y="120" width="80" height="30" as="geometry" />
        </mxCell>
        <mxCell id="z1p9RPbKcic8axvv2RAE-9" value="&lt;font style=&quot;font-size: 14px;&quot;&gt;&lt;b&gt;EVALUATION&lt;/b&gt;&lt;/font&gt;" style="text;html=1;align=center;verticalAlign=middle;resizable=0;points=[];autosize=1;strokeColor=none;fillColor=none;" vertex="1" parent="1">
          <mxGeometry x="650" y="370" width="110" height="30" as="geometry" />
        </mxCell>
        <mxCell id="z1p9RPbKcic8axvv2RAE-10" value="&lt;font style=&quot;font-size: 13px;&quot;&gt;&lt;b&gt;Hardware&lt;/b&gt;&lt;/font&gt;" style="text;html=1;align=center;verticalAlign=middle;resizable=0;points=[];autosize=1;strokeColor=none;fillColor=none;" vertex="1" parent="1">
          <mxGeometry x="50" y="170" width="80" height="30" as="geometry" />
        </mxCell>
        <mxCell id="z1p9RPbKcic8axvv2RAE-11" value="&lt;div style=&quot;font-size: 13px;&quot;&gt;&lt;span style=&quot;background-color: initial;&quot;&gt;&lt;font style=&quot;font-size: 13px;&quot;&gt;-64 bit Architecture&lt;/font&gt;&lt;/span&gt;&lt;/div&gt;&lt;div style=&quot;font-size: 13px;&quot;&gt;&lt;span style=&quot;background-color: initial;&quot;&gt;&lt;font style=&quot;font-size: 13px;&quot;&gt;-Minimum system memory:&lt;/font&gt;&lt;/span&gt;&lt;/div&gt;&lt;div style=&quot;font-size: 13px;&quot;&gt;&lt;span style=&quot;background-color: initial;&quot;&gt;&lt;font style=&quot;font-size: 13px;&quot;&gt;8gb&amp;nbsp;&lt;/font&gt;&lt;/span&gt;&lt;/div&gt;&lt;div style=&quot;font-size: 13px;&quot;&gt;&lt;span style=&quot;background-color: initial;&quot;&gt;&lt;font style=&quot;font-size: 13px;&quot;&gt;-Minimum hard drive capacity:&lt;/font&gt;&lt;/span&gt;&lt;/div&gt;&lt;div style=&quot;font-size: 13px;&quot;&gt;&lt;span style=&quot;background-color: initial;&quot;&gt;&lt;font style=&quot;font-size: 13px;&quot;&gt;500gb&lt;/font&gt;&lt;/span&gt;&lt;/div&gt;&lt;div style=&quot;font-size: 13px;&quot;&gt;&lt;span style=&quot;background-color: initial;&quot;&gt;&lt;font style=&quot;font-size: 13px;&quot;&gt;-Minimum CPU specs:&lt;/font&gt;&lt;/span&gt;&lt;/div&gt;&lt;div style=&quot;font-size: 13px;&quot;&gt;&lt;span style=&quot;background-color: initial;&quot;&gt;&lt;font style=&quot;font-size: 13px;&quot;&gt;Intel core i3&lt;/font&gt;&lt;/span&gt;&lt;/div&gt;&lt;div style=&quot;font-size: 13px;&quot;&gt;&lt;span style=&quot;background-color: initial;&quot;&gt;&lt;font style=&quot;font-size: 13px;&quot;&gt;Minimum Internet speed:&amp;nbsp;&lt;/font&gt;&lt;/span&gt;&lt;/div&gt;&lt;div style=&quot;font-size: 13px;&quot;&gt;&lt;span style=&quot;background-color: initial;&quot;&gt;&lt;font style=&quot;font-size: 13px;&quot;&gt;5mbps&lt;/font&gt;&lt;/span&gt;&lt;/div&gt;" style="text;html=1;align=left;verticalAlign=middle;resizable=0;points=[];autosize=1;strokeColor=none;fillColor=none;" vertex="1" parent="1">
          <mxGeometry x="50" y="190" width="200" height="150" as="geometry" />
        </mxCell>
        <mxCell id="z1p9RPbKcic8axvv2RAE-12" value="&lt;font style=&quot;font-size: 13px;&quot;&gt;&lt;b&gt;Knowledge Requirement&lt;/b&gt;&lt;/font&gt;" style="text;html=1;align=left;verticalAlign=middle;resizable=0;points=[];autosize=1;strokeColor=none;fillColor=none;" vertex="1" parent="1">
          <mxGeometry x="50" y="355" width="180" height="30" as="geometry" />
        </mxCell>
        <mxCell id="z1p9RPbKcic8axvv2RAE-13" value="&lt;div style=&quot;text-align: left; font-size: 13px;&quot;&gt;-Web development&amp;nbsp;&lt;/div&gt;&lt;div style=&quot;text-align: left; font-size: 13px;&quot;&gt;-Database Management&lt;/div&gt;&lt;div style=&quot;text-align: left; font-size: 13px;&quot;&gt;-Github repository management&lt;/div&gt;" style="text;html=1;align=center;verticalAlign=middle;resizable=0;points=[];autosize=1;strokeColor=none;fillColor=none;" vertex="1" parent="1">
          <mxGeometry x="30" y="380" width="210" height="60" as="geometry" />
        </mxCell>
        <mxCell id="z1p9RPbKcic8axvv2RAE-14" value="&lt;span style=&quot;font-size: 13px;&quot;&gt;&lt;b&gt;Development Tools&lt;/b&gt;&lt;/span&gt;" style="text;html=1;align=left;verticalAlign=middle;resizable=0;points=[];autosize=1;strokeColor=none;fillColor=none;" vertex="1" parent="1">
          <mxGeometry x="50" y="455" width="140" height="30" as="geometry" />
        </mxCell>
        <mxCell id="z1p9RPbKcic8axvv2RAE-15" value="&lt;div style=&quot;text-align: left; font-size: 13px;&quot;&gt;-Visual Studio Code 2022&lt;/div&gt;&lt;div style=&quot;text-align: left; font-size: 13px;&quot;&gt;-Github Desktop&lt;/div&gt;&lt;div style=&quot;text-align: left; font-size: 13px;&quot;&gt;-PHP&lt;/div&gt;&lt;div style=&quot;text-align: left; font-size: 13px;&quot;&gt;-Xampp&lt;/div&gt;" style="text;html=1;align=center;verticalAlign=middle;resizable=0;points=[];autosize=1;strokeColor=none;fillColor=none;" vertex="1" parent="1">
          <mxGeometry x="35" y="480" width="170" height="80" as="geometry" />
        </mxCell>
        <mxCell id="z1p9RPbKcic8axvv2RAE-16" value="&lt;div style=&quot;font-size: 13px;&quot;&gt;Web-based&amp;nbsp;&lt;span style=&quot;background-color: initial;&quot;&gt;Management&amp;nbsp;&lt;/span&gt;&lt;span style=&quot;background-color: initial;&quot;&gt;Information&amp;nbsp;&lt;/span&gt;&lt;/div&gt;&lt;div style=&quot;font-size: 13px;&quot;&gt;System for CAPEDA Drivers&lt;/div&gt;" style="text;html=1;align=center;verticalAlign=middle;resizable=0;points=[];autosize=1;strokeColor=none;fillColor=none;" vertex="1" parent="1">
          <mxGeometry x="590" y="170" width="240" height="40" as="geometry" />
        </mxCell>
        <mxCell id="z1p9RPbKcic8axvv2RAE-17" value="&lt;font style=&quot;font-size: 13px;&quot;&gt;&lt;b&gt;Requirements&lt;/b&gt;&lt;/font&gt;" style="text;html=1;align=center;verticalAlign=middle;resizable=0;points=[];autosize=1;strokeColor=none;fillColor=none;" vertex="1" parent="1">
          <mxGeometry x="315" y="170" width="110" height="30" as="geometry" />
        </mxCell>
        <mxCell id="z1p9RPbKcic8axvv2RAE-18" value="&lt;div style=&quot;font-size: 13px;&quot;&gt;Set up Interview&lt;/div&gt;&lt;div style=&quot;font-size: 13px;&quot;&gt;Define Problem&lt;/div&gt;" style="text;html=1;align=left;verticalAlign=middle;resizable=0;points=[];autosize=1;strokeColor=none;fillColor=none;" vertex="1" parent="1">
          <mxGeometry x="330" y="190" width="120" height="40" as="geometry" />
        </mxCell>
        <mxCell id="z1p9RPbKcic8axvv2RAE-19" value="&lt;font style=&quot;font-size: 13px;&quot;&gt;&lt;b&gt;Analysis&lt;/b&gt;&lt;/font&gt;" style="text;html=1;align=center;verticalAlign=middle;resizable=0;points=[];autosize=1;strokeColor=none;fillColor=none;" vertex="1" parent="1">
          <mxGeometry x="315" y="230" width="80" height="30" as="geometry" />
        </mxCell>
        <mxCell id="z1p9RPbKcic8axvv2RAE-20" value="&lt;div style=&quot;font-size: 13px;&quot;&gt;Analyze gathered data&lt;/div&gt;&lt;div style=&quot;font-size: 13px;&quot;&gt;Propose possible solution&lt;/div&gt;" style="text;html=1;align=left;verticalAlign=middle;resizable=0;points=[];autosize=1;strokeColor=none;fillColor=none;" vertex="1" parent="1">
          <mxGeometry x="330" y="260" width="170" height="40" as="geometry" />
        </mxCell>
        <mxCell id="z1p9RPbKcic8axvv2RAE-21" value="&lt;font style=&quot;font-size: 13px;&quot;&gt;&lt;b&gt;Design&lt;/b&gt;&lt;/font&gt;" style="text;html=1;align=center;verticalAlign=middle;resizable=0;points=[];autosize=1;strokeColor=none;fillColor=none;" vertex="1" parent="1">
          <mxGeometry x="320" y="300" width="70" height="30" as="geometry" />
        </mxCell>
        <mxCell id="z1p9RPbKcic8axvv2RAE-22" value="&lt;div style=&quot;font-size: 13px;&quot;&gt;Designing Web Pages&lt;/div&gt;&lt;div style=&quot;font-size: 13px;&quot;&gt;Designing Database Structure&lt;/div&gt;" style="text;html=1;align=left;verticalAlign=middle;resizable=0;points=[];autosize=1;strokeColor=none;fillColor=none;" vertex="1" parent="1">
          <mxGeometry x="330" y="330" width="200" height="40" as="geometry" />
        </mxCell>
        <mxCell id="z1p9RPbKcic8axvv2RAE-23" value="&lt;font style=&quot;font-size: 13px;&quot;&gt;&lt;b&gt;Development&lt;/b&gt;&lt;/font&gt;" style="text;html=1;align=center;verticalAlign=middle;resizable=0;points=[];autosize=1;strokeColor=none;fillColor=none;" vertex="1" parent="1">
          <mxGeometry x="310" y="380" width="110" height="30" as="geometry" />
        </mxCell>
        <mxCell id="z1p9RPbKcic8axvv2RAE-24" value="&lt;div style=&quot;font-size: 13px;&quot;&gt;Develop functionalities of modules&lt;/div&gt;" style="text;html=1;align=left;verticalAlign=middle;resizable=0;points=[];autosize=1;strokeColor=none;fillColor=none;" vertex="1" parent="1">
          <mxGeometry x="330" y="410" width="220" height="30" as="geometry" />
        </mxCell>
        <mxCell id="z1p9RPbKcic8axvv2RAE-25" value="&lt;font style=&quot;font-size: 13px;&quot;&gt;&lt;b&gt;Testing&lt;/b&gt;&lt;/font&gt;" style="text;html=1;align=center;verticalAlign=middle;resizable=0;points=[];autosize=1;strokeColor=none;fillColor=none;" vertex="1" parent="1">
          <mxGeometry x="320" y="440" width="70" height="30" as="geometry" />
        </mxCell>
        <mxCell id="z1p9RPbKcic8axvv2RAE-28" value="&lt;div style=&quot;font-size: 13px;&quot;&gt;Check for bugs and errors&lt;/div&gt;" style="text;html=1;align=left;verticalAlign=middle;resizable=0;points=[];autosize=1;strokeColor=none;fillColor=none;" vertex="1" parent="1">
          <mxGeometry x="330" y="470" width="170" height="30" as="geometry" />
        </mxCell>
        <mxCell id="z1p9RPbKcic8axvv2RAE-29" value="&lt;font style=&quot;font-size: 13px;&quot;&gt;&lt;b&gt;Deployment&lt;/b&gt;&lt;/font&gt;" style="text;html=1;align=center;verticalAlign=middle;resizable=0;points=[];autosize=1;strokeColor=none;fillColor=none;" vertex="1" parent="1">
          <mxGeometry x="315" y="500" width="100" height="30" as="geometry" />
        </mxCell>
        <mxCell id="z1p9RPbKcic8axvv2RAE-30" value="&lt;div style=&quot;font-size: 13px;&quot;&gt;Deploy the system to the client&lt;/div&gt;" style="text;html=1;align=left;verticalAlign=middle;resizable=0;points=[];autosize=1;strokeColor=none;fillColor=none;" vertex="1" parent="1">
          <mxGeometry x="330" y="520" width="200" height="30" as="geometry" />
        </mxCell>
        <mxCell id="z1p9RPbKcic8axvv2RAE-31" value="&lt;font style=&quot;font-size: 13px;&quot;&gt;&lt;b&gt;Review and Maintenance&lt;/b&gt;&lt;/font&gt;" style="text;html=1;align=center;verticalAlign=middle;resizable=0;points=[];autosize=1;strokeColor=none;fillColor=none;" vertex="1" parent="1">
          <mxGeometry x="315" y="550" width="180" height="30" as="geometry" />
        </mxCell>
        <mxCell id="z1p9RPbKcic8axvv2RAE-33" value="&lt;div style=&quot;font-size: 13px;&quot;&gt;Review and maintain the system&amp;nbsp;&lt;/div&gt;&lt;div style=&quot;font-size: 13px;&quot;&gt;after deployment&lt;/div&gt;" style="text;html=1;align=left;verticalAlign=middle;resizable=0;points=[];autosize=1;strokeColor=none;fillColor=none;" vertex="1" parent="1">
          <mxGeometry x="330" y="580" width="210" height="40" as="geometry" />
        </mxCell>
      </root>
    </mxGraphModel>
  </diagram>
</mxfile>
